<svg width="141" height="24" viewBox="0 0 141 24" fill="none" xmlns="http://www.w3.org/2000/svg">
<path d="M37.698 16.7132L38.9234 13.4518H44.334L45.5782 16.7132H47.897L42.9766 3.51665H40.3939L35.4546 16.7132H37.698ZM41.6193 5.85433L43.7307 11.6042H39.5267L41.6193 5.85433Z" fill="#050506"/>
<path d="M48.9176 13.5272C48.9741 15.6198 50.7462 16.8263 53.329 16.8263C55.6667 16.8263 57.4199 15.6575 57.4199 13.81C57.4199 11.6608 55.6289 11.2083 53.4232 10.9444C52.0282 10.7936 51.1044 10.6805 51.1044 9.77558C51.1044 9.00264 51.8962 8.51249 53.1028 8.51249C54.3093 8.51249 55.1388 9.13461 55.2519 10.0207H57.2502C57.1183 8.04118 55.4404 6.94775 53.065 6.94775C50.7462 6.9289 49.1061 8.11659 49.1061 9.94525C49.1061 11.9436 50.8405 12.4149 53.0462 12.6788C54.5355 12.8673 55.4216 12.9428 55.4216 13.9796C55.4216 14.7526 54.5921 15.2427 53.329 15.2427C51.8585 15.2427 50.9913 14.5263 50.9159 13.5272H48.9176Z" fill="#050506"/>
<path d="M58.9645 13.5272C59.021 15.6198 60.7931 16.8263 63.3759 16.8263C65.7135 16.8263 67.4668 15.6575 67.4668 13.81C67.4668 11.6608 65.6758 11.2083 63.4701 10.9444C62.0751 10.7936 61.1513 10.6805 61.1513 9.77558C61.1513 9.00264 61.9431 8.51249 63.1497 8.51249C64.3562 8.51249 65.1857 9.13461 65.2988 10.0207H67.2971C67.1652 8.04118 65.4873 6.94775 63.1119 6.94775C60.7931 6.9289 59.153 8.11659 59.153 9.94525C59.153 11.9436 60.8874 12.4149 63.0931 12.6788C64.5824 12.8673 65.4685 12.9428 65.4685 13.9796C65.4685 14.7526 64.639 15.2427 63.3759 15.2427C61.9054 15.2427 61.0382 14.5263 60.9628 13.5272H58.9645Z" fill="#050506"/>
<path d="M74.1913 16.8263C76.5855 16.8263 78.2068 15.3747 78.5462 13.4706H76.5101C76.2273 14.5452 75.3224 15.1673 74.0782 15.1673C72.4757 15.1673 71.4389 14.0927 71.3823 12.4526V12.3206H78.6593C78.697 12.0567 78.7158 11.7928 78.7158 11.5477C78.6593 8.71986 76.7929 6.94775 74.0028 6.94775C71.1561 6.94775 69.252 8.92723 69.252 11.9059C69.252 14.8657 71.1561 16.8263 74.1913 16.8263ZM71.4577 10.8313C71.6085 9.4551 72.7208 8.5879 74.0216 8.5879C75.4355 8.5879 76.4347 9.39854 76.6044 10.8313H71.4577Z" fill="#050506"/>
<path d="M92.0314 6.94775C90.4478 6.94775 89.3544 7.64529 88.7322 8.70101C88.1478 7.45676 87.0167 6.94775 85.7536 6.94775C84.302 6.96661 83.4725 7.60758 82.9258 8.32396L82.6995 7.06087H80.9274V16.7132H82.9635V11.5477C82.9635 9.83214 83.8307 8.70101 85.2257 8.70101C86.5642 8.70101 87.2618 9.58706 87.2618 11.2838V16.7132H89.3167V11.4911C89.3167 9.75673 90.2027 8.70101 91.5978 8.70101C92.9174 8.70101 93.615 9.58706 93.615 11.2838V16.7132H95.651V11.1518C95.651 8.09774 94.0297 6.94775 92.0314 6.94775Z" fill="#050506"/>
<path d="M103.228 6.94775C101.738 6.94775 100.739 7.62643 100.098 8.49363V3.51665H98.0623V16.7132H99.8344L100.079 15.3181C100.683 16.1853 101.72 16.8263 103.228 16.8263C105.867 16.8263 107.79 14.8468 107.79 11.887C107.79 8.77642 105.867 6.94775 103.228 6.94775ZM102.888 15.1108C101.192 15.1108 100.079 13.7722 100.079 11.8682C100.079 10.0018 101.192 8.68216 102.888 8.68216C104.585 8.68216 105.716 10.0018 105.716 11.887C105.716 13.7911 104.585 15.1108 102.888 15.1108Z" fill="#050506"/>
<path d="M109.987 16.7132H112.023V3.51665H109.987V16.7132Z" fill="#050506"/>
<path d="M117.375 16.7697L116.998 17.7124C116.696 18.5041 116.507 18.6927 115.716 18.6927H114.283V20.4836H116.47C117.884 20.4836 118.298 19.7861 118.902 18.2214L123.275 7.06087H121.107L118.487 14.3944L115.791 7.06087H113.623L117.375 16.7697Z" fill="#050506"/>
<path d="M125.769 16.7132L126.994 13.4518H132.405L133.649 16.7132H135.968L131.047 3.51665H128.465L123.525 16.7132H125.769ZM129.69 5.85433L131.801 11.6042H127.597L129.69 5.85433Z" fill="#050506"/>
<path d="M137.887 16.7132H140.055V3.51665H137.887V16.7132Z" fill="#050506"/>
<path fill-rule="evenodd" clip-rule="evenodd" d="M12.2496 0C10.4867 0 8.90488 1.08157 8.26713 2.72302L0 24H6.28017L12.7874 7.25245H12.7902C12.9534 6.84425 13.353 6.55584 13.8199 6.55584C14.2869 6.55584 14.6864 6.84425 14.8497 7.25245H15.7167V3.85532H14.1073L15.6053 0H12.2496Z" fill="#2545D3"/>
<path fill-rule="evenodd" clip-rule="evenodd" d="M8.2677 2.72302C8.87959 1.1483 10.3603 0.0888597 12.0361 0.00532694L12.034 0H12.2501H14.6661H15.4972C17.2601 0 18.8419 1.08157 19.4797 2.72302L27.7468 24H21.3592L13.3424 3.36747C12.8835 2.35631 11.864 1.65296 10.6801 1.65296C9.49331 1.65296 8.47176 2.35976 8.0144 3.37493L8.2677 2.72302Z" fill="#566DE8"/>
</svg>
